<?xml version="1.0" encoding="UTF-8"?> <svg xmlns="http://www.w3.org/2000/svg" width="200" height="200" viewBox="0 0 1000 1000" fill="none"><g clip-path="url(#clip0_2598_24)"><path fill-rule="evenodd" clip-rule="evenodd" d="M186.744 521.32H251.384L266.716 465.1H83.5267L81.2915 466.762L50.5364 594.169L50 601.494H229.837L243.65 550.577H179.055L175.39 563.744L124.116 564.014L140.031 504.782L196.444 504.512L190.544 507.299L186.744 521.32Z" fill="#E50026"></path><path fill-rule="evenodd" clip-rule="evenodd" d="M239.27 601.494L238.466 597.944L338.241 465.1H408.603L452.142 597.944L450.756 601.494H401.987H388.396L361.978 524.96L363.05 513.411L325.322 560.329L328.272 565.002H373.198L375.344 570.575L349.864 601.494H239.27Z" fill="#E50026"></path><path fill-rule="evenodd" clip-rule="evenodd" d="M658.265 601.401H582.449L543.916 549.315L600.375 506.756H534.842L543.692 511.745L524.113 601.401H457.819L488.709 465.007L377.892 400.247L376.506 397.506H547.805L631.488 439.705L620.67 449.502L725.586 397.506H899.21L896.706 400.247L739.489 487.252L949.676 597.896L948.871 601.401H736.002L642.171 547.112L656.7 523.205L617.228 549.404L658.265 601.401Z" fill="#E50026"></path></g><defs><clipPath id="clip0_2598_24"><rect width="900" height="203.988" fill="white" transform="translate(50 397.506)"></rect></clipPath></defs></svg>